<svg width="914" height="162" viewBox="0 0 914 162" fill="none" xmlns="http://www.w3.org/2000/svg">
<path fill-rule="evenodd" clip-rule="evenodd" d="M114.759 21.8986C126.57 6.29024 147.283 -2.42089 166.97 0.591032C169.349 1.24002 171.273 3.43566 171.334 5.88595C171.556 31.4645 158.879 56.7678 138.095 72.2678C130.588 78.2904 121.21 81.5889 113.973 87.9651C103.12 97.1576 95.139 109.872 92.907 123.859C91.008 134.644 91.841 145.619 91.6394 156.502C91.5691 159.259 89.0573 161.749 86.2517 161.955C82.957 162.388 79.65 159.603 79.6922 156.335C79.3499 142.086 81.1687 127.342 75.781 113.731C75.5794 105.76 75.6716 97.7666 75.7498 89.7863C79.6292 94.8831 83.2274 100.306 85.489 106.3C89.9014 96.852 96.0319 88.2495 103.7 81.0666C103.578 72.0503 103.639 63.0261 103.648 54.0129C103.595 42.4879 107.706 31.0804 114.759 21.8986ZM5.01053 0.475798C17.1612 -1.06847 29.8172 1.44124 40.3299 7.63986C57.4744 17.3742 68.4705 36.5755 67.7361 56.0119C67.7174 69.4655 67.7357 82.9214 67.7263 96.3811C68.0264 113.075 59.7546 129.619 46.2488 139.776C35.7971 147.895 22.2584 152.067 8.9324 151.272C6.3081 151.093 3.14236 151.212 1.36209 148.939C-0.636506 146.646 0.148324 143.389 0.16873 140.644C1.26135 117.496 13.063 95.3597 31.2127 80.6067C34.881 82.8519 38.5088 85.1636 42.2771 87.2619C25.0812 99.2768 13.8249 119.01 12.2664 139.628C30.4175 139.756 47.6618 127.543 53.3621 110.705C56.3676 103.048 55.6648 94.7723 55.7742 86.76C50.4788 82.1837 43.875 79.5251 38.0779 75.6682C14.5484 60.5003 -0.436402 33.3479 0.0652144 5.71213C0.148179 3.09496 2.39725 0.810986 5.01053 0.475798ZM139.85 80.6096C159.68 96.0513 171.498 120.735 171.328 145.496C171.289 148.075 169.168 150.466 166.585 150.9C156.124 152.237 145.268 150.702 135.74 146.224C121.099 139.552 109.601 126.363 105.559 111.021C107.901 105.774 111.528 101.101 115.661 97.0647C115.448 111.995 124.283 126.452 137.428 133.843C143.953 137.623 151.479 139.501 159.027 139.698C157.58 119.012 146.204 99.3211 129.056 87.2053C132.743 85.1574 136.435 83.0707 139.85 80.6096ZM312.358 62.7268C318.837 62.7268 324.155 64.8541 328.217 69.1086C332.277 73.3631 334.307 78.9712 334.307 86.0295C334.307 87.4799 334.211 89.0273 333.921 90.9612H299.305C300.079 99.7599 305.397 104.692 313.519 104.692C318.644 104.691 323.188 102.177 326.959 97.4397L333.727 103.821C328.989 110.396 321.834 113.78 312.938 113.78C305.397 113.78 299.402 111.46 294.857 106.915C290.409 102.274 288.185 96.0853 288.185 88.2531C288.185 80.808 290.409 74.7166 294.954 69.9787C299.498 65.1442 305.3 62.7269 312.358 62.7268ZM365.876 62.7268C378.929 62.7268 386.085 69.6882 386.085 81.3879V112.62H375.738V104.885C372.16 110.686 366.456 113.78 359.204 113.78C349.535 113.78 343.25 107.979 343.25 99.76C343.25 92.0246 348.374 87.0934 358.817 84.4826L375.158 80.4211C374.674 75.0064 371.291 72.2024 365.102 72.2024C360.171 72.2024 355.433 74.523 349.728 80.2278L343.25 73.8459C348.665 67.1742 357.27 62.7268 365.876 62.7268ZM440.245 63.8869H454.555V72.9758H440.245V96.7619C440.245 102.177 442.372 104.207 447.303 104.207C449.721 104.207 451.558 103.627 455.039 101.597L458.326 109.816C454.845 112.426 450.494 113.78 445.853 113.78C434.734 113.78 429.125 108.366 429.125 98.2131V72.9758H421.003V63.8869H429.125V48.7063L440.245 44.9348V63.8869ZM623.609 62.7268C631.055 62.7268 637.05 65.1441 641.691 69.882C646.429 74.6199 648.75 80.7114 648.75 88.2531C648.75 95.7952 646.429 101.984 641.691 106.722C637.05 111.46 631.055 113.78 623.609 113.78C616.164 113.78 610.169 111.46 605.528 106.722C600.887 101.984 598.566 95.7952 598.566 88.2531C598.566 80.7112 600.887 74.62 605.528 69.882C610.169 65.1441 616.164 62.7268 623.609 62.7268ZM670.751 93.7649C670.751 100.823 673.748 104.014 680.033 104.014C687.382 104.014 691.733 97.9224 691.733 88.2531V63.8869H702.853V112.62H692.313V105.368C688.736 110.88 683.611 113.78 677.036 113.78C671.718 113.78 667.56 112.136 664.369 108.849C661.178 105.465 659.632 101.307 659.632 96.1819V63.8869H670.751V93.7649ZM770.689 62.7268C777.941 62.7268 784.227 64.8541 790.415 69.4953L784.71 77.7141C779.778 73.5564 775.234 71.719 770.593 71.719C765.661 71.719 762.954 73.7498 762.954 76.9406C762.954 79.7445 764.501 81.1945 768.852 82.258L776.878 84.0959C786.643 86.3199 790.995 90.6712 790.995 97.9231C790.995 107.302 783.549 113.78 771.849 113.78C763.34 113.78 755.218 110.976 750.094 106.625L755.605 98.6965C759.956 102.274 765.758 104.788 771.076 104.788C777.167 104.788 780.358 102.564 780.358 98.7932C780.358 95.9891 778.618 94.4418 773.3 93.2815L766.338 91.7346C757.152 89.704 752.511 84.7725 752.51 77.3274C752.51 73.1696 754.155 69.7848 757.442 66.9807C760.826 64.1767 765.178 62.7268 770.689 62.7268ZM823.302 62.7268C829.78 62.7268 835.098 64.8542 839.159 69.1086C843.22 73.3631 845.251 78.9711 845.251 86.0295C845.251 87.4799 845.154 89.0273 844.864 90.9612H810.248C811.021 99.76 816.34 104.692 824.462 104.692C829.586 104.692 834.131 102.177 837.902 97.4397L844.671 103.821C839.933 110.396 832.777 113.78 823.882 113.78C816.34 113.78 810.344 111.46 805.8 106.915C801.352 102.274 799.128 96.0852 799.128 88.2531C799.128 80.8081 801.352 74.7166 805.896 69.9787C810.441 65.1441 816.243 62.7268 823.302 62.7268ZM232.108 72.4924H264.306V44.9348H276.103V112.62H264.306V83.0315H232.108V112.62H220.311V44.9348H232.108V72.4924ZM411.375 112.62H400.158V42.0344H411.375V112.62ZM477.757 70.4621C481.238 65.3374 486.265 62.7268 492.841 62.7268C498.255 62.7268 502.607 64.4666 505.798 68.0442C509.085 71.6217 510.728 76.0699 510.728 81.4846V112.62H499.609V83.9992C499.609 75.9737 496.418 72.4924 489.843 72.4924C482.204 72.4926 477.757 78.5841 477.757 88.3498V112.62H466.54V42.0344H477.757V70.4621ZM571.37 75.1028L588.291 44.9348H600.668L577.074 85.5461V112.62H565.278V85.4494L541.588 44.9348H554.351L571.37 75.1028ZM742.279 63.5002C743.826 63.5002 745.567 63.5968 746.824 63.8869L745.857 73.9426C744.213 73.6525 743.343 73.6526 742.279 73.6526C733.77 73.6527 728.742 80.4216 728.742 92.1213V112.62H717.526V63.8869H728.162V73.8459C730.966 67.1742 735.994 63.5003 742.279 63.5002ZM868.116 112.62H856.9V42.0344H868.116V112.62ZM903.851 40.8742C906.945 40.8742 909.847 41.3575 913.425 42.5178L911.394 51.51C908.397 50.7365 906.849 50.4465 905.206 50.4465C899.888 50.4465 897.471 53.2504 897.47 59.9221V63.8869H910.62V72.9758H897.47V112.62H886.35V72.9758H878.228V63.8869H886.35V59.342C886.35 48.1259 892.732 40.8744 903.851 40.8742ZM361.912 91.9279C356.884 93.0883 354.369 95.4089 354.369 98.7932C354.369 102.661 356.981 104.788 361.719 104.788C365.489 104.788 368.68 103.337 371.291 100.437C373.901 97.4393 375.255 93.7645 375.255 89.3166V88.7365L361.912 91.9279ZM623.609 72.2024C615.39 72.2024 609.879 78.6807 609.879 88.2531C609.879 97.6323 615.487 104.304 623.609 104.304C631.828 104.304 637.436 97.8257 637.436 88.2531C637.436 78.6807 631.828 72.2024 623.609 72.2024ZM81.9109 73.4377C84.8744 70.9803 89.8206 72.2965 91.1883 75.8195C93.0654 79.5693 89.4787 84.3718 85.2791 83.9299C80.0133 83.91 77.5407 76.43 81.9109 73.4377ZM312.165 71.4289C305.59 71.4291 301.046 75.6833 299.595 83.0315H323.382C322.898 75.6831 318.643 71.4289 312.165 71.4289ZM823.108 71.4289C816.533 71.4289 811.988 75.6831 810.538 83.0315H834.324C833.84 75.6832 829.586 71.429 823.108 71.4289ZM12.2976 11.7453C13.262 25.2969 18.5104 38.475 26.8318 49.3205C34.2686 59.2998 44.7612 66.504 55.7664 72.2727C55.7054 66.2011 55.7883 60.1259 55.7273 54.0559C55.6959 43.3283 51.1631 32.7488 43.5857 25.0227C35.5348 16.7058 23.995 11.8434 12.2976 11.7453ZM159.131 11.7688C141.523 11.651 124.71 23.1094 118.519 39.2199C114.088 49.7103 116.128 61.2356 115.654 72.257C123.234 67.967 130.942 63.6567 137.133 57.4934C149.813 45.5274 157.665 28.9324 159.131 11.7688ZM81.614 45.7326C87.6441 42.7606 95.4525 47.5327 95.6746 54.0481C96.1058 59.2242 91.6344 64.3207 86.2674 64.4113C80.8609 64.9608 75.7449 60.2878 75.6746 55.0227C75.4434 51.1153 77.9755 47.2876 81.614 45.7326ZM83.533 25.7912C88.0765 23.695 93.4107 28.9505 91.2918 33.3889C89.8554 37.5518 83.4333 38.4273 80.8806 34.8264C78.4174 31.8938 79.8849 27.0019 83.533 25.7912Z" fill="url(#paint0_linear_56717_14289)"/>
<defs>
<linearGradient id="paint0_linear_56717_14289" x1="0" y1="81" x2="913.425" y2="81.0001" gradientUnits="userSpaceOnUse">
<stop stop-color="#554494"/>
<stop offset="1" stop-color="#BF5663"/>
</linearGradient>
</defs>
</svg>
