<svg width="914" height="162" viewBox="0 0 914 162" fill="none" xmlns="http://www.w3.org/2000/svg">
<path fill-rule="evenodd" clip-rule="evenodd" d="M114.759 21.8986C126.57 6.29013 147.283 -2.42082 166.97 0.59101C169.349 1.23997 171.273 3.4355 171.334 5.88593C171.555 31.4645 158.879 56.7679 138.095 72.2678C130.588 78.2903 121.21 81.5889 113.973 87.965C103.12 97.1576 95.139 109.873 92.907 123.859C91.0081 134.644 91.8411 145.619 91.6394 156.502C91.569 159.259 89.0573 161.749 86.2517 161.955C82.9572 162.388 79.6502 159.603 79.6922 156.335C79.3499 142.086 81.1687 127.342 75.781 113.731C75.5794 105.76 75.6716 97.7666 75.7498 89.7863C79.6292 94.8831 83.2274 100.306 85.4891 106.3C89.9014 96.8519 96.032 88.2495 103.7 81.0666C103.578 72.0503 103.639 63.0261 103.648 54.0129C103.595 42.4879 107.706 31.0804 114.759 21.8986ZM5.01053 0.475776C17.1613 -1.06854 29.8171 1.44122 40.3299 7.63984C57.4745 17.3742 68.4706 36.5754 67.7361 56.0119C67.7174 69.4655 67.7357 82.9214 67.7264 96.3811C68.0263 113.075 59.7547 129.619 46.2488 139.776C35.7971 147.895 22.2583 152.067 8.93241 151.272C6.30817 151.093 3.14231 151.211 1.3621 148.939C-0.636462 146.646 0.148283 143.389 0.168738 140.644C1.26128 117.496 13.0631 95.3597 31.2127 80.6066C34.881 82.8519 38.5088 85.1636 42.2771 87.2619C25.0813 99.2768 13.8248 119.01 12.2664 139.628C30.4174 139.757 47.6617 127.543 53.3621 110.705C56.3677 103.048 55.6648 94.7723 55.7742 86.76C50.4788 82.1837 43.875 79.525 38.0779 75.6682C14.5485 60.5004 -0.436291 33.3477 0.0652222 5.7121C0.148059 3.09495 2.39731 0.811116 5.01053 0.475776ZM139.85 80.6096C159.68 96.0513 171.498 120.735 171.328 145.496C171.289 148.075 169.168 150.466 166.585 150.9C156.124 152.237 145.268 150.702 135.74 146.224C121.099 139.552 109.601 126.363 105.559 111.021C107.901 105.774 111.528 101.101 115.661 97.0646C115.448 111.995 124.283 126.452 137.428 133.843C143.953 137.623 151.479 139.501 159.027 139.698C157.58 119.012 146.204 99.3211 129.056 87.2053C132.743 85.1574 136.435 83.0706 139.85 80.6096ZM312.359 62.7258C318.837 62.7258 324.156 64.8532 328.217 69.1076C332.278 73.362 334.308 78.9701 334.308 86.0285C334.308 87.4789 334.212 89.0263 333.922 90.9602H299.305C300.079 99.7592 305.397 104.691 313.519 104.691C318.644 104.691 323.189 102.177 326.96 97.4387L333.728 103.821C328.99 110.396 321.835 113.779 312.939 113.779C305.397 113.779 299.402 111.459 294.857 106.914C290.41 102.273 288.186 96.0849 288.186 88.2531C288.186 80.8078 290.409 74.7157 294.954 69.9777C299.498 65.1431 305.301 62.7258 312.359 62.7258ZM365.877 62.7258C378.93 62.7259 386.085 69.6882 386.085 81.3879V112.619H375.739V104.884C372.161 110.685 366.457 113.779 359.205 113.779C349.536 113.779 343.25 107.978 343.25 99.759C343.25 92.0237 348.375 87.0923 358.818 84.4816L375.159 80.4211C374.676 75.0063 371.291 72.2014 365.102 72.2014C360.171 72.2015 355.433 74.523 349.728 80.2277L343.25 73.8459C348.665 67.1741 357.271 62.7258 365.877 62.7258ZM440.245 63.8859H454.555V72.9758H440.245V96.7619C440.245 102.177 442.372 104.207 447.303 104.207C449.721 104.207 451.558 103.627 455.039 101.597L458.327 109.816C454.846 112.426 450.495 113.779 445.853 113.779C434.734 113.779 429.126 108.365 429.126 98.2121V72.9758H421.004V63.8859H429.126V48.7053L440.245 44.9348V63.8859ZM623.61 62.7258C631.055 62.7259 637.05 65.1433 641.691 69.8811C646.429 74.619 648.75 80.7111 648.75 88.2531C648.75 95.795 646.429 101.983 641.691 106.721C637.05 111.459 631.055 113.779 623.61 113.779C616.165 113.779 610.169 111.459 605.528 106.721C600.887 101.983 598.566 95.7949 598.566 88.2531C598.566 80.7111 600.887 74.619 605.528 69.8811C610.169 65.1431 616.165 62.7258 623.61 62.7258ZM670.752 93.7639C670.752 100.822 673.749 104.014 680.034 104.014C687.383 104.014 691.734 97.9222 691.734 88.2531V63.8859H702.853V112.619H692.314V105.367C688.737 110.879 683.611 113.779 677.036 113.779C671.718 113.779 667.561 112.136 664.37 108.849C661.179 105.465 659.632 101.306 659.632 96.1818V63.8859H670.752V93.7639ZM770.689 62.7258C777.941 62.7258 784.227 64.8531 790.415 69.4943L784.71 77.7131C779.779 73.5554 775.234 71.718 770.593 71.718C765.661 71.718 762.954 73.7489 762.954 76.9396C762.954 79.7437 764.501 81.1944 768.852 82.258L776.878 84.0949C786.644 86.3188 790.995 90.6701 790.995 97.9221C790.995 107.301 783.549 113.779 771.849 113.779C763.341 113.779 755.218 110.975 750.094 106.624L755.605 98.6955C759.956 102.273 765.758 104.787 771.076 104.787C777.168 104.787 780.359 102.563 780.359 98.7922C780.359 95.9883 778.618 94.4408 773.301 93.2805L766.339 91.7336C757.153 89.703 752.512 84.7717 752.512 77.3264C752.512 73.1688 754.155 69.7847 757.442 66.9807C760.826 64.1766 765.178 62.7258 770.689 62.7258ZM823.302 62.7258C829.78 62.7258 835.098 64.8533 839.159 69.1076C843.22 73.362 845.251 78.9701 845.251 86.0285C845.251 87.4789 845.154 89.0263 844.864 90.9602H810.248C811.021 99.7591 816.34 104.69 824.462 104.691C829.586 104.691 834.131 102.177 837.902 97.4387L844.671 103.821C839.933 110.396 832.777 113.779 823.882 113.779C816.34 113.779 810.345 111.459 805.801 106.914C801.353 102.273 799.129 96.0851 799.129 88.2531C799.129 80.8078 801.353 74.7157 805.897 69.9777C810.442 65.1432 816.243 62.7258 823.302 62.7258ZM232.108 72.4924H264.307V44.9348H276.103V112.619H264.307V83.0314H232.108V112.619H220.312V44.9348H232.108V72.4924ZM411.375 112.619H400.159V42.0334H411.375V112.619ZM477.757 70.4611C481.238 65.3365 486.266 62.7259 492.841 62.7258C498.255 62.7258 502.607 64.4665 505.798 68.0441C509.085 71.6218 510.729 76.0698 510.729 81.4846V112.619H499.609V83.9982C499.609 75.9728 496.419 72.4924 489.844 72.4924C482.205 72.4924 477.757 78.5838 477.757 88.3498V112.619H466.541V42.0334H477.757V70.4611ZM571.37 75.1027L588.291 44.9348H600.668L577.075 85.5451V112.619H565.278V85.4484L541.589 44.9348H554.352L571.37 75.1027ZM742.28 63.4992C743.827 63.4992 745.567 63.596 746.824 63.8859L745.857 73.9426C744.214 73.6526 743.344 73.6525 742.28 73.6525C733.771 73.6525 728.743 80.4206 728.743 92.1203V112.619H717.526V63.8859H728.163V73.8459C730.967 67.1741 735.995 63.4992 742.28 63.4992ZM868.117 112.619H856.9V42.0334H868.117V112.619ZM903.852 40.8732C906.946 40.8732 909.847 41.3566 913.425 42.5168L911.394 51.51C908.397 50.7364 906.85 50.4455 905.206 50.4455C899.888 50.4456 897.471 53.2503 897.471 59.9221V63.8859H910.621V72.9758H897.471V112.619H886.351V72.9758H878.228V63.8859H886.351V59.342C886.351 48.1256 892.733 40.8732 903.852 40.8732ZM361.912 91.9269C356.884 93.0872 354.37 95.408 354.37 98.7922C354.37 102.66 356.981 104.787 361.719 104.787C365.49 104.787 368.68 103.337 371.291 100.436C373.901 97.4383 375.256 93.7644 375.256 89.3166V88.7365L361.912 91.9269ZM623.61 72.2014C615.391 72.2014 609.88 78.6805 609.88 88.2531C609.88 97.6322 615.488 104.304 623.61 104.304C631.829 104.304 637.437 97.8254 637.437 88.2531C637.437 78.6807 631.829 72.2016 623.61 72.2014ZM81.9109 73.4377C84.8744 70.98 89.8207 72.2963 91.1883 75.8195C93.0653 79.5693 89.4787 84.3719 85.2791 83.9299C80.0136 83.9097 77.5412 76.43 81.9109 73.4377ZM312.166 71.4279C305.591 71.4279 301.046 75.6828 299.595 83.0314H323.382C322.898 75.6828 318.644 71.428 312.166 71.4279ZM823.108 71.4279C816.533 71.428 811.988 75.6829 810.538 83.0314H834.325C833.842 75.6828 829.587 71.4279 823.108 71.4279ZM12.2976 11.7453C13.2621 25.2968 18.5104 38.475 26.8318 49.3205C34.2686 59.2997 44.7613 66.504 55.7664 72.2727C55.7054 66.2011 55.7883 60.1259 55.7273 54.0559C55.696 43.3283 51.1631 32.7489 43.5857 25.0227C35.5347 16.7057 23.9951 11.8434 12.2976 11.7453ZM159.131 11.7687C141.523 11.6511 124.71 23.1093 118.519 39.2199C114.088 49.7103 116.128 61.2356 115.654 72.257C123.234 67.967 130.942 63.6566 137.133 57.4934C149.813 45.5275 157.664 28.9324 159.131 11.7687ZM81.6141 45.7326C87.6442 42.7603 95.4527 47.5324 95.6746 54.048C96.1057 59.2241 91.6344 64.3208 86.2674 64.4113C80.8611 64.9606 75.7451 60.2876 75.6746 55.0227C75.4434 51.1153 77.9756 47.2877 81.6141 45.7326ZM83.533 25.7912C88.0766 23.6946 93.4111 28.9503 91.2918 33.3889C89.8552 37.5515 83.4332 38.4271 80.8807 34.8264C78.4174 31.8939 79.8852 27.0021 83.533 25.7912Z" fill="white"/>
</svg>
